<svg width="29" height="29" viewBox="0 0 29 29" fill="none" xmlns="http://www.w3.org/2000/svg">
<circle cx="14.5" cy="14.5" r="14.5" fill="#E6E6E6"/>
<path d="M16.8442 10.9351C15.8338 10.359 15.049 9.91152 14.4116 9.62122C13.7718 9.32983 13.2165 9.16528 12.6765 9.22133C11.8194 9.31029 11.0392 9.75436 10.5308 10.4455C10.2096 10.882 10.0759 11.4423 10.0114 12.136C9.94726 12.8269 9.94726 13.7223 9.94727 14.8739V14.9219C9.94726 16.0735 9.94726 16.969 10.0114 17.6599C10.0759 18.3535 10.2096 18.9138 10.5308 19.3504C11.0392 20.0415 11.8194 20.4856 12.6765 20.5745C13.2165 20.6306 13.7718 20.466 14.4116 20.1747C15.049 19.8844 15.8338 19.4369 16.8441 18.8608L16.8852 18.8374C17.8955 18.2614 18.6803 17.8139 19.2536 17.4138C19.8286 17.0126 20.2524 16.6189 20.4747 16.126C20.827 15.3444 20.827 14.4515 20.4747 13.6699C20.2524 13.1769 19.8286 12.7832 19.2536 12.3821C18.6803 11.982 17.8955 11.5345 16.8852 10.9585L16.8442 10.9351Z" fill="#555555"/>
</svg>
